<?xml version="1.0" encoding="UTF-8" ?>
<!DOCTYPE svg PUBLIC "-//W3C//DTD SVG 1.1//EN" "http://www.w3.org/Graphics/SVG/1.1/DTD/svg11.dtd">
<svg width="1152pt" height="288pt" viewBox="0 0 1152 288" version="1.1" xmlns="http://www.w3.org/2000/svg">
<g id="#ffffffff">
<path fill="#ffffff" opacity="1.00" d=" M 327.35 3.37 C 330.12 2.11 333.00 0.97 336.04 0.60 C 339.85 0.12 343.77 3.13 343.92 7.04 C 344.15 11.69 343.34 16.64 340.56 20.48 C 338.36 23.52 334.37 23.89 331.15 25.27 C 317.16 30.64 303.22 36.37 290.31 44.05 C 295.50 50.81 300.51 57.72 304.92 65.02 C 312.03 77.78 317.60 91.62 327.20 102.81 C 331.43 107.75 337.14 112.26 343.98 112.15 C 352.56 111.93 361.97 111.41 369.09 106.06 C 375.16 101.17 372.31 92.55 370.33 86.32 C 368.16 81.78 370.34 76.78 372.80 72.85 C 374.58 70.24 376.74 67.32 380.07 66.76 C 383.27 66.22 386.59 68.46 387.20 71.67 C 389.28 81.12 389.54 90.86 389.91 100.50 C 390.61 106.29 396.15 110.26 401.56 111.28 C 408.64 112.50 415.86 112.10 423.01 112.11 C 428.49 111.66 434.43 111.88 439.31 108.92 C 439.92 106.05 438.70 103.31 437.77 100.67 C 435.24 93.69 432.19 86.90 428.66 80.36 C 426.76 77.46 427.34 73.72 428.48 70.64 C 430.28 65.31 432.92 59.89 437.62 56.55 C 440.07 54.86 443.57 55.25 445.45 57.62 C 448.25 61.10 449.62 65.46 451.08 69.61 C 454.32 79.77 457.01 90.31 456.62 101.05 C 457.00 110.98 452.41 120.55 445.64 127.61 C 441.42 132.06 436.07 135.80 429.91 136.79 C 426.33 137.64 422.63 137.20 419.00 137.29 C 409.90 137.33 400.28 137.35 392.03 132.96 C 387.65 130.88 383.87 127.77 380.67 124.16 C 372.98 132.06 362.06 136.22 351.17 136.76 C 341.98 138.49 332.13 136.04 324.88 130.13 C 319.50 126.31 315.46 121.05 311.32 116.00 C 307.43 124.43 300.14 131.17 291.34 134.17 C 280.00 138.08 267.79 137.16 255.99 137.30 C 248.95 137.48 241.49 136.55 235.55 132.48 C 227.35 127.22 222.48 117.59 222.25 107.96 C 221.98 83.67 219.16 59.52 216.87 35.38 C 216.47 28.60 215.00 21.03 219.05 15.00 C 222.22 9.18 229.43 5.60 235.89 7.73 C 238.58 9.90 239.11 13.70 239.36 16.94 C 239.27 31.21 239.46 45.47 239.54 59.73 C 239.83 65.49 239.29 71.28 240.19 77.00 C 240.38 85.67 240.64 94.34 240.60 103.01 C 240.38 106.25 242.82 108.96 245.36 110.63 C 249.57 112.77 254.45 112.01 259.00 112.14 C 269.81 112.04 281.25 113.08 291.28 108.18 C 294.30 106.42 297.77 103.77 297.75 99.91 C 298.38 93.76 295.14 88.10 291.90 83.14 C 283.80 71.67 272.80 62.69 261.74 54.22 C 257.41 51.16 259.49 45.06 260.51 40.78 C 261.87 37.62 261.45 32.62 265.47 31.47 C 286.73 23.57 307.16 13.66 327.35 3.37 Z" />
<path fill="#ffffff" opacity="1.00" d=" M 487.50 7.63 C 491.10 5.90 496.06 5.96 498.83 9.14 C 500.59 12.10 499.93 15.75 500.15 19.03 C 500.51 26.01 500.37 33.01 500.10 39.99 C 500.30 63.44 499.62 86.89 498.06 110.29 C 497.84 119.64 494.11 128.53 489.59 136.57 C 488.11 139.24 484.92 138.76 482.36 138.57 C 481.21 136.92 479.96 135.17 480.29 133.03 C 480.62 120.00 479.45 107.04 479.40 94.02 C 478.67 70.64 477.34 47.26 475.67 23.92 C 475.86 16.76 480.98 10.30 487.50 7.63 Z" />
<path fill="#ffffff" opacity="1.00" d=" M 645.06 20.70 C 646.67 14.29 651.89 9.14 658.09 7.03 C 662.35 5.41 669.40 7.25 668.83 12.88 C 669.12 39.93 669.03 66.99 668.18 94.03 C 667.16 101.37 667.66 108.84 666.49 116.16 C 665.33 122.49 662.90 128.51 660.05 134.24 C 659.23 135.92 658.15 137.55 656.52 138.53 C 654.81 138.83 653.07 138.64 651.36 138.57 C 650.54 137.11 649.30 135.72 649.45 133.94 C 649.35 129.54 649.57 125.14 649.28 120.75 C 647.97 106.56 649.23 92.24 647.72 78.07 C 647.48 61.77 646.00 45.54 645.12 29.27 C 644.90 26.43 644.21 23.51 645.06 20.70 Z" />
<path fill="#ffffff" opacity="1.00" d=" M 759.68 22.70 C 768.86 15.71 780.46 12.26 791.93 12.21 C 810.29 12.15 828.64 12.20 847.00 12.18 C 853.42 12.24 859.90 11.86 866.25 13.04 C 858.00 15.17 850.06 18.25 842.00 20.99 C 818.02 29.36 794.01 37.69 770.01 46.02 C 759.80 49.71 749.41 52.93 739.32 56.96 C 741.73 43.61 748.74 30.89 759.68 22.70 Z" />
<path fill="#ffffff" opacity="1.00" d=" M 933.03 12.16 C 987.71 12.23 1042.38 12.14 1097.06 12.21 C 1110.24 12.08 1123.60 16.66 1133.38 25.63 C 1143.33 34.33 1148.86 47.04 1150.76 59.91 C 1151.36 83.27 1150.88 106.64 1151.00 130.00 C 1151.00 161.66 1150.99 193.33 1151.01 224.99 C 1151.48 239.36 1146.44 254.02 1136.68 264.65 C 1127.17 275.07 1113.14 280.99 1099.06 280.79 C 1062.89 280.78 1026.72 280.99 990.56 280.59 C 1025.50 262.77 1060.63 245.31 1095.66 227.66 C 1101.66 224.57 1108.29 222.03 1112.73 216.71 C 1119.18 208.95 1121.63 197.65 1117.76 188.15 C 1114.82 180.69 1110.84 173.69 1107.52 166.39 C 1097.64 145.95 1087.77 125.50 1077.90 105.05 C 1072.74 92.67 1058.42 84.67 1045.23 88.30 C 1041.17 89.35 1037.49 91.40 1033.79 93.28 C 1038.96 106.67 1044.34 119.98 1049.73 133.29 C 1052.86 140.84 1056.06 148.68 1055.92 157.00 C 1056.15 173.32 1046.37 189.73 1031.16 196.15 C 987.86 214.27 944.50 232.26 901.21 250.39 L 901.00 251.06 C 905.47 261.04 910.42 270.81 915.14 280.68 C 877.42 280.93 839.71 280.77 802.00 280.82 C 794.45 280.73 786.81 281.26 779.37 279.68 C 765.32 276.88 752.90 267.52 745.96 255.04 C 740.93 246.26 738.40 236.10 738.68 225.99 C 738.85 194.69 738.33 163.38 739.02 132.09 C 744.91 148.37 749.96 164.96 755.73 181.29 C 759.08 189.99 766.84 196.94 775.97 199.01 C 781.44 200.34 787.18 199.53 792.44 197.68 C 844.64 179.40 896.94 161.38 949.14 143.09 C 960.26 139.23 967.34 127.58 967.02 116.01 C 967.07 111.68 965.94 107.46 964.50 103.42 C 956.87 80.68 949.28 57.92 941.65 35.18 C 938.95 27.45 936.83 19.46 933.03 12.16 M 961.41 51.59 C 965.84 65.39 970.53 79.10 975.12 92.84 C 977.21 99.48 980.22 105.96 980.48 113.03 C 981.42 127.50 975.05 142.59 963.11 151.09 C 957.96 154.97 951.68 156.78 945.68 158.90 C 904.61 173.27 863.42 187.30 822.45 201.97 C 825.88 210.37 829.27 218.78 832.58 227.21 C 834.73 232.97 837.36 238.79 842.09 242.91 C 849.69 249.97 861.42 251.75 871.00 248.02 C 922.51 226.47 974.06 205.03 1025.58 183.51 C 1034.71 179.78 1041.07 170.70 1042.34 161.02 C 1043.25 155.08 1041.56 149.13 1039.34 143.67 C 1028.61 117.04 1018.01 90.35 1007.23 63.73 C 1003.66 54.37 994.98 47.24 985.03 45.82 C 976.65 44.20 968.90 48.56 961.41 51.59 Z" />
<path fill="#ffffff" opacity="1.00" d=" M 431.27 17.90 C 435.41 16.85 440.33 16.59 444.07 19.03 C 448.20 21.38 450.97 26.23 450.65 31.01 C 450.86 38.97 442.78 45.51 435.02 44.35 C 427.62 43.73 421.56 36.35 422.66 28.96 C 423.33 24.07 426.79 19.85 431.27 17.90 Z" />
<path fill="#ffffff" opacity="1.00" d=" M 606.08 56.10 C 608.69 52.27 614.97 50.87 617.65 55.42 C 622.89 64.89 625.19 75.73 627.29 86.27 C 627.72 91.83 628.93 97.42 628.00 103.00 C 627.08 115.61 618.34 126.80 607.07 132.11 C 596.84 137.13 585.15 137.42 573.98 137.27 C 567.99 136.54 561.70 136.98 556.21 134.01 C 553.82 148.52 546.64 162.01 536.92 172.93 C 530.46 179.89 522.62 186.57 512.94 188.08 C 507.05 188.49 500.56 187.06 496.31 182.69 C 492.96 179.55 490.82 175.03 490.68 170.44 C 491.63 166.85 495.73 166.21 498.84 165.72 C 517.10 163.32 534.17 151.43 541.66 134.45 C 542.62 131.81 543.85 128.94 542.90 126.11 C 540.59 117.37 534.49 110.40 529.98 102.77 C 528.81 100.28 530.69 97.83 531.69 95.64 C 534.45 90.86 536.64 85.55 540.79 81.76 C 543.17 79.59 547.10 80.63 548.57 83.38 C 553.03 90.50 554.38 99.42 560.31 105.67 C 563.25 109.14 567.44 111.61 572.03 111.96 C 579.37 112.55 586.72 111.83 594.07 111.75 C 600.03 111.43 606.19 110.42 611.28 107.08 C 610.07 95.70 604.26 85.68 599.36 75.59 C 598.00 68.57 601.97 61.57 606.08 56.10 Z" />
<path fill="#ffffff" opacity="1.00" d=" M 44.11 67.01 C 43.26 59.85 49.95 53.36 57.00 53.82 C 62.71 53.49 67.98 57.58 69.63 62.96 C 71.05 59.58 73.26 56.36 76.68 54.76 C 81.80 52.44 88.54 53.33 92.31 57.71 C 96.47 62.02 96.71 69.37 92.97 74.01 C 89.71 78.40 83.53 80.15 78.40 78.44 C 74.22 77.32 71.48 73.64 69.69 69.92 C 68.03 75.00 63.51 79.09 58.02 79.29 C 51.03 80.11 43.78 74.26 44.11 67.01 Z" />
<path fill="#ffffff" opacity="1.00" d=" M 111.77 67.00 C 113.39 58.74 123.92 53.51 131.33 57.69 C 136.80 61.52 139.29 68.10 141.22 74.23 C 143.84 83.91 144.99 94.02 144.39 104.03 C 143.30 114.63 136.11 123.81 127.10 129.09 C 115.86 135.63 102.73 137.75 89.98 139.00 C 83.03 139.91 75.99 139.48 69.00 139.69 C 53.41 139.89 37.24 139.52 22.68 133.27 C 12.54 128.94 4.10 120.04 1.95 109.03 C -0.75 95.29 2.71 81.05 8.27 68.46 C 10.52 63.38 18.77 63.98 20.62 69.03 C 21.43 74.04 18.87 78.68 17.96 83.49 C 16.68 89.99 16.55 97.52 21.17 102.81 C 28.00 110.84 39.09 112.82 48.99 114.20 C 62.33 114.97 75.69 114.61 89.03 114.22 C 101.61 112.89 114.71 112.42 126.40 107.09 C 125.27 97.88 121.08 89.47 116.43 81.58 C 114.16 77.04 110.87 72.33 111.77 67.00 Z" />
<path fill="#ffffff" opacity="1.00" d=" M 184.50 68.51 C 188.98 67.03 191.57 71.57 193.02 75.01 C 200.35 91.78 203.20 110.76 200.11 128.86 C 195.44 148.12 183.33 165.89 166.31 176.28 C 163.54 177.87 160.72 179.54 157.62 180.39 C 150.61 181.34 142.68 179.61 137.86 174.10 C 135.24 171.42 133.87 167.70 133.65 164.00 C 133.42 162.05 134.88 160.38 136.45 159.46 C 139.62 158.07 143.25 158.88 146.48 157.63 C 158.85 153.79 169.12 145.12 177.38 135.39 C 181.36 130.12 185.96 123.96 184.31 116.94 C 181.82 107.61 177.66 98.77 172.32 90.74 C 170.57 88.19 172.96 85.48 173.99 83.17 C 177.07 78.05 179.44 72.05 184.50 68.51 Z" />
<path fill="#ffffff" opacity="1.00" d=" M 377.51 158.03 C 379.17 152.29 384.92 147.95 390.96 148.55 C 398.88 148.63 405.49 157.40 402.74 165.00 C 400.80 172.70 390.97 176.53 384.14 172.74 C 380.90 171.19 378.78 168.15 377.47 164.90 C 375.81 169.98 371.29 174.07 365.86 174.44 C 358.72 175.33 351.64 169.20 351.62 162.01 C 351.25 156.59 355.02 151.36 360.07 149.54 C 363.02 149.01 366.07 149.07 369.04 149.49 C 373.05 150.81 375.94 154.20 377.51 158.03 Z" />
<path fill="#ffffff" opacity="1.00" d=" M 609.49 151.75 C 615.95 148.73 624.41 152.35 626.87 159.00 C 629.95 166.20 624.66 175.16 616.95 176.15 C 610.40 177.56 603.82 173.20 601.79 166.97 C 599.62 176.06 587.34 179.78 580.45 173.55 C 574.13 168.58 574.58 157.77 581.37 153.43 C 584.38 150.99 588.41 151.06 592.07 151.42 C 596.74 152.21 600.08 156.00 601.81 160.21 C 603.19 156.55 605.71 153.15 609.49 151.75 Z" />
<path fill="#ffffff" opacity="1.00" d=" M 402.39 226.25 C 403.72 224.89 405.07 223.55 406.44 222.21 C 407.59 223.50 408.80 224.75 409.85 226.13 C 409.56 227.90 407.45 228.87 406.37 230.25 C 405.04 228.91 403.71 227.58 402.39 226.25 Z" />
<path fill="#ffffff" opacity="1.00" d=" M 290.58 224.90 C 291.74 223.42 294.12 224.10 295.75 223.48 C 297.22 237.62 297.72 251.87 296.71 266.06 C 294.95 265.92 293.19 265.77 291.43 265.64 C 292.60 252.07 291.86 238.43 290.58 224.90 Z" />
<path fill="#ffffff" opacity="1.00" d=" M 664.70 224.34 C 666.46 224.06 668.22 223.78 670.00 223.50 C 671.47 237.63 671.97 251.88 670.95 266.06 C 669.19 265.92 667.43 265.77 665.68 265.64 C 666.80 251.89 666.20 238.04 664.70 224.34 Z" />
<path fill="#ffffff" opacity="1.00" d=" M 338.76 226.21 C 340.50 225.89 342.24 225.56 343.98 225.23 C 345.29 235.76 344.45 246.39 344.86 256.96 C 344.81 260.82 350.10 261.00 352.81 260.08 C 358.93 257.60 359.46 250.05 363.65 245.71 C 366.77 242.45 372.51 243.45 374.98 247.01 C 377.44 250.03 377.71 254.03 378.25 257.73 C 378.71 260.65 382.46 261.20 384.65 259.87 C 389.18 257.44 390.19 251.88 391.41 247.34 C 393.13 247.72 394.86 248.10 396.59 248.49 C 395.73 252.25 393.40 256.66 395.82 260.28 C 397.36 261.07 399.38 260.92 400.58 259.58 C 404.09 256.23 404.86 251.15 405.72 246.60 C 407.41 246.89 409.11 247.20 410.80 247.52 C 410.33 251.20 409.09 255.02 410.25 258.68 C 411.23 262.00 417.08 261.35 417.42 257.95 C 418.09 252.99 415.91 248.30 414.02 243.86 C 415.57 243.05 417.12 242.23 418.70 241.45 C 421.33 247.48 424.59 254.46 421.96 261.03 C 419.07 267.28 409.46 267.71 405.55 262.22 C 403.40 264.06 401.02 266.13 398.00 266.03 C 394.94 266.38 392.32 264.48 390.48 262.25 C 386.76 266.18 379.85 267.24 375.72 263.40 C 371.17 267.96 364.54 264.32 360.00 261.61 C 355.76 266.16 348.38 267.15 343.09 263.94 C 340.42 262.29 339.48 259.00 339.50 256.03 C 339.69 246.09 339.82 236.11 338.76 226.21 M 367.51 249.41 C 365.34 251.42 364.28 254.31 363.20 256.99 C 365.43 259.11 369.56 261.60 372.57 259.65 C 373.91 256.98 373.27 253.62 371.87 251.09 C 371.03 249.80 368.92 248.18 367.51 249.41 Z" />
<path fill="#ffffff" opacity="1.00" d=" M 463.45 225.03 C 465.20 225.00 466.96 224.98 468.72 224.95 C 469.13 238.66 470.00 252.36 470.02 266.08 C 470.11 270.10 468.98 274.25 466.37 277.37 C 459.70 285.34 445.36 285.37 439.29 276.66 C 435.02 269.99 436.74 261.28 439.90 254.51 C 441.50 255.19 443.11 255.88 444.72 256.57 C 442.33 261.88 440.31 268.84 444.00 274.02 C 448.54 279.72 458.15 279.10 462.52 273.50 C 464.18 271.41 464.88 268.71 464.76 266.07 C 464.79 252.38 463.94 238.71 463.45 225.03 Z" />
<path fill="#ffffff" opacity="1.00" d=" M 104.27 226.16 C 106.02 225.86 107.77 225.57 109.52 225.27 C 110.72 235.70 110.01 246.21 110.33 256.67 C 110.00 260.63 115.14 260.87 117.96 260.32 C 126.70 258.52 125.09 245.09 134.06 243.75 C 144.44 243.17 147.66 259.61 139.59 264.71 C 134.99 266.88 130.02 264.22 126.28 261.54 C 122.24 266.28 115.03 266.84 109.57 264.52 C 106.32 263.10 104.93 259.43 105.00 256.09 C 105.22 246.12 105.29 236.10 104.27 226.16 M 129.16 257.20 C 131.67 258.47 134.61 261.23 137.54 259.75 C 140.44 256.50 139.16 249.05 134.13 248.91 C 131.65 251.08 130.63 254.36 129.16 257.20 Z" />
<path fill="#ffffff" opacity="1.00" d=" M 400.25 229.88 C 401.71 231.33 403.16 232.78 404.61 234.24 C 403.16 235.71 401.70 237.16 400.24 238.61 C 398.78 237.16 397.33 235.71 395.88 234.25 C 397.34 232.79 398.79 231.34 400.25 229.88 Z" />
<path fill="#ffffff" opacity="1.00" d=" M 407.63 234.24 C 409.04 232.83 410.45 231.41 411.87 230.01 C 413.32 231.46 414.78 232.91 416.25 234.37 C 414.84 235.79 413.42 237.20 412.00 238.61 C 410.53 237.16 409.08 235.70 407.63 234.24 Z" />
<path fill="#ffffff" opacity="1.00" d=" M 242.88 236.75 C 244.33 235.29 245.78 233.83 247.24 232.39 C 248.71 233.83 250.16 235.29 251.61 236.76 C 250.16 238.21 248.71 239.67 247.25 241.12 C 245.79 239.66 244.34 238.20 242.88 236.75 Z" />
<path fill="#ffffff" opacity="1.00" d=" M 617.13 236.74 C 618.71 235.46 619.83 233.21 621.84 232.71 C 623.23 234.01 624.53 235.40 625.88 236.76 C 624.37 238.16 623.10 239.90 621.29 240.93 C 619.85 239.58 618.51 238.14 617.13 236.74 Z" />
<path fill="#ffffff" opacity="1.00" d=" M 553.23 235.44 C 555.17 236.01 556.33 238.24 557.88 239.56 C 556.39 240.97 555.04 242.56 553.33 243.72 C 551.88 242.37 550.53 240.93 549.13 239.55 C 550.47 238.15 551.76 236.71 553.23 235.44 Z" />
<path fill="#ffffff" opacity="1.00" d=" M 16.05 239.82 C 16.42 237.82 18.79 236.71 20.00 235.13 C 21.21 236.71 23.58 237.82 23.95 239.82 C 22.74 241.26 21.33 242.53 20.00 243.87 C 18.67 242.53 17.26 241.26 16.05 239.82 Z" />
<path fill="#ffffff" opacity="1.00" d=" M 27.05 239.82 C 27.39 237.87 29.69 236.79 30.86 235.25 C 32.33 236.70 33.79 238.17 35.25 239.64 C 33.83 241.04 32.41 242.45 31.00 243.86 C 29.67 242.53 28.26 241.26 27.05 239.82 Z" />
<path fill="#ffffff" opacity="1.00" d=" M 175.01 239.80 C 175.55 237.81 177.74 236.69 179.00 235.13 C 180.20 236.71 182.59 237.82 182.95 239.82 C 181.73 241.26 180.33 242.53 179.00 243.87 C 177.65 242.52 176.25 241.24 175.01 239.80 Z" />
<path fill="#ffffff" opacity="1.00" d=" M 186.06 239.83 C 186.37 237.88 188.70 236.79 189.86 235.25 C 191.33 236.70 192.79 238.17 194.25 239.64 C 192.82 241.04 191.41 242.45 190.00 243.86 C 188.67 242.53 187.26 241.27 186.06 239.83 Z" />
<path fill="#ffffff" opacity="1.00" d=" M 560.25 239.36 C 561.56 237.93 562.99 236.62 564.37 235.25 C 565.84 236.71 567.30 238.17 568.76 239.65 C 567.31 241.06 565.88 242.48 564.43 243.89 C 563.01 242.39 561.49 241.00 560.25 239.36 Z" />
<path fill="#ffffff" opacity="1.00" d=" M 509.69 243.35 C 511.29 242.59 512.89 241.82 514.51 241.07 C 516.52 245.81 518.54 250.79 518.39 256.02 C 518.32 259.72 515.85 263.16 512.40 264.45 C 507.34 266.47 501.76 265.55 496.46 265.73 C 494.35 276.20 484.36 283.04 474.29 284.59 C 473.89 282.87 473.50 281.15 473.11 279.42 C 480.69 277.73 489.07 273.86 491.51 265.83 C 486.39 265.73 479.94 266.09 476.68 261.29 C 473.91 256.00 475.81 249.04 480.03 245.05 C 482.52 242.60 486.65 242.49 489.44 244.53 C 494.60 248.05 496.38 254.59 496.91 260.49 C 501.98 260.05 508.10 261.91 512.29 258.24 C 515.03 253.34 511.26 248.03 509.69 243.35 M 483.19 249.11 C 480.93 251.57 479.94 255.44 481.13 258.60 C 484.04 261.03 488.14 260.43 491.66 260.44 C 491.06 256.39 490.19 251.86 486.83 249.13 C 485.84 248.26 484.10 248.03 483.19 249.11 Z" />
<path fill="#ffffff" opacity="1.00" d=" M 2.93 241.46 C 4.44 242.31 5.95 243.17 7.46 244.03 C 6.14 247.68 4.84 252.28 7.38 255.71 C 10.95 259.87 16.92 260.21 22.01 260.51 C 28.86 260.55 36.80 260.13 41.79 254.77 C 44.01 252.62 44.33 249.27 46.10 246.95 C 47.64 247.24 49.16 247.69 50.68 248.07 C 49.85 251.64 48.96 256.17 52.06 258.94 C 55.10 261.07 59.78 261.25 62.45 258.40 C 65.27 255.41 66.16 251.23 67.12 247.37 C 68.84 247.73 70.56 248.07 72.28 248.42 C 71.54 251.82 69.87 255.36 70.79 258.87 C 71.32 261.12 74.40 261.26 75.89 259.95 C 79.65 256.86 80.42 251.74 81.39 247.26 C 82.76 246.01 84.89 247.54 86.56 247.50 C 86.12 251.64 84.23 256.43 86.88 260.20 C 89.02 261.49 92.88 260.83 93.18 257.90 C 93.82 252.97 91.65 248.31 89.80 243.88 C 91.33 243.06 92.87 242.24 94.41 241.42 C 97.08 247.37 100.22 254.24 97.82 260.78 C 95.12 267.23 85.27 267.82 81.33 262.23 C 79.03 264.29 76.28 266.36 73.00 266.03 C 70.23 266.13 67.97 264.31 66.31 262.30 C 60.37 268.22 48.83 266.43 45.37 258.64 C 38.23 265.68 27.44 266.31 18.00 265.57 C 12.12 264.96 5.32 263.37 2.15 257.82 C -0.84 252.70 0.68 246.54 2.93 241.46 Z" />
<path fill="#ffffff" opacity="1.00" d=" M 161.93 241.46 C 163.44 242.31 164.95 243.17 166.46 244.03 C 165.14 247.68 163.84 252.28 166.38 255.71 C 169.69 259.63 175.23 260.11 180.01 260.47 C 186.32 260.60 193.24 260.42 198.62 256.69 C 202.00 254.44 203.54 250.50 204.74 246.80 C 206.38 247.23 208.03 247.68 209.68 248.11 C 208.92 251.49 208.02 255.56 210.56 258.45 C 213.00 260.95 216.83 260.48 220.01 260.53 C 223.02 260.44 226.75 260.25 228.57 257.44 C 230.31 254.29 228.94 250.62 228.43 247.34 C 230.11 246.88 231.78 246.41 233.47 245.95 C 235.10 250.51 233.17 256.63 237.24 260.08 C 240.78 261.11 246.16 260.62 247.80 256.71 C 248.90 253.63 247.79 250.36 247.31 247.28 C 248.96 246.83 250.61 246.38 252.26 245.93 C 253.27 249.76 253.11 253.80 254.08 257.63 C 255.31 261.50 260.44 261.01 263.15 259.10 C 267.73 255.69 268.20 249.22 272.39 245.47 C 275.08 242.93 279.64 243.22 282.30 245.67 C 287.62 250.40 288.07 260.83 281.65 264.81 C 277.04 266.82 272.19 264.13 268.44 261.52 C 264.20 266.67 255.51 267.41 250.64 262.75 C 245.19 266.22 236.76 267.65 231.79 262.65 C 227.05 266.45 220.63 265.79 214.96 265.67 C 210.38 265.58 206.36 262.68 204.37 258.64 C 197.22 265.68 186.44 266.31 177.00 265.57 C 171.12 264.96 164.31 263.37 161.15 257.82 C 158.16 252.70 159.68 246.54 161.93 241.46 M 276.25 248.70 C 274.20 251.28 272.77 254.25 271.39 257.22 C 273.87 258.49 276.68 260.99 279.58 259.91 C 282.88 256.58 281.36 249.20 276.25 248.70 Z" />
<path fill="#ffffff" opacity="1.00" d=" M 536.35 241.50 C 537.90 242.31 539.44 243.14 540.98 243.99 C 539.71 247.55 538.41 251.86 540.61 255.33 C 543.67 259.48 549.28 260.05 554.02 260.45 C 560.39 260.63 567.36 260.51 572.86 256.87 C 576.40 254.66 578.03 250.61 579.25 246.81 C 580.89 247.23 582.51 247.66 584.16 248.10 C 583.37 251.58 582.52 255.82 585.29 258.69 C 587.95 261.02 591.75 260.47 595.03 260.51 C 597.95 260.43 601.56 260.06 603.18 257.23 C 604.73 254.10 603.42 250.56 602.98 247.31 C 604.64 246.86 606.30 246.41 607.97 245.95 C 609.63 250.61 607.55 257.08 612.10 260.30 C 614.98 260.77 618.35 260.56 620.73 258.69 C 623.78 255.59 622.14 250.95 621.54 247.22 C 623.21 246.83 624.88 246.41 626.55 246.01 C 627.49 249.82 627.38 253.80 628.32 257.60 C 629.26 260.79 633.12 261.08 635.76 259.96 C 643.03 256.99 642.01 245.67 650.07 243.80 C 660.87 242.52 664.48 260.10 655.72 264.87 C 651.17 266.76 646.41 264.11 642.74 261.54 C 638.43 266.65 629.80 267.38 624.86 262.79 C 619.48 266.20 611.20 267.61 606.31 262.67 C 601.41 266.48 594.86 265.82 589.06 265.64 C 584.63 265.47 580.86 262.54 578.91 258.68 C 571.30 265.94 559.97 266.43 550.09 265.42 C 544.56 264.65 538.22 262.86 535.48 257.49 C 532.68 252.43 534.29 246.50 536.35 241.50 M 650.32 249.17 C 648.07 251.37 647.09 254.50 645.64 257.22 C 647.91 258.52 650.18 260.10 652.87 260.31 C 657.62 258.34 655.83 248.20 650.32 249.17 Z" />
<path fill="#ffffff" opacity="1.00" d=" M 320.19 248.90 C 321.09 249.38 321.98 249.86 322.89 250.35 C 320.80 252.52 318.48 254.64 317.66 257.66 C 320.09 257.51 323.62 258.10 323.77 261.15 C 324.25 265.57 317.55 267.46 315.32 263.75 C 312.24 258.50 315.71 252.11 320.19 248.90 Z" />
<path fill="#ffffff" opacity="1.00" d=" M 216.71 274.84 C 217.21 272.83 219.47 271.70 220.75 270.12 C 222.14 271.64 223.95 272.87 224.91 274.73 C 223.57 276.15 222.14 277.49 220.75 278.87 C 219.39 277.53 218.00 276.23 216.71 274.84 Z" />
<path fill="#ffffff" opacity="1.00" d=" M 227.75 274.14 C 229.02 272.74 230.41 271.45 231.75 270.12 C 233.11 271.65 235.01 272.85 235.89 274.74 C 234.56 276.17 233.13 277.50 231.75 278.87 C 230.50 277.27 228.11 276.16 227.75 274.14 Z" />
<path fill="#ffffff" opacity="1.00" d=" M 595.24 270.13 C 596.61 271.47 598.01 272.79 599.33 274.19 C 598.66 276.16 596.58 277.31 595.26 278.87 C 593.87 277.50 592.44 276.18 591.13 274.75 C 591.95 272.85 593.89 271.66 595.24 270.13 Z" />
<path fill="#ffffff" opacity="1.00" d=" M 606.25 270.12 C 607.54 271.70 609.75 272.83 610.30 274.83 C 608.99 276.23 607.60 277.53 606.25 278.87 C 604.87 277.51 603.45 276.19 602.15 274.76 C 602.89 272.84 604.92 271.67 606.25 270.12 Z" />
<path fill="#ffffff" opacity="1.00" d=" M 510.39 275.24 C 511.83 273.78 513.29 272.33 514.75 270.88 C 516.20 272.34 517.66 273.79 519.12 275.25 C 517.67 276.71 516.21 278.16 514.76 279.61 C 513.29 278.16 511.83 276.71 510.39 275.24 Z" />
<path fill="#ffffff" opacity="1.00" d=" M 498.75 275.36 C 500.21 273.91 501.67 272.46 503.13 271.01 C 504.59 272.46 506.04 273.91 507.50 275.36 C 506.05 276.82 504.59 278.28 503.13 279.74 C 501.66 278.29 500.20 276.83 498.75 275.36 Z" />
<path fill="#ffffff" opacity="1.00" d=" M 504.99 283.36 C 506.33 282.04 507.66 280.72 509.00 279.40 C 510.33 280.72 511.66 282.04 513.01 283.36 C 511.67 284.70 510.34 286.04 509.00 287.37 C 507.65 286.03 506.32 284.70 504.99 283.36 Z" />
</g>
</svg>
